Coordinates
version=1
nRows=4
nColumns=63
inDegrees=yes

Units are S.I. units (second, meters, Newtons, ...)
If the header above contains a line with 'inDegrees', this indicates whether rotational values are in degrees (yes) or radians (no).

endheader
time	pelvis_tilt	pelvis_list	pelvis_rotation	pelvis_tx	pelvis_ty	pelvis_tz	hip_flexion_r	hip_adduction_r	hip_rotation_r	knee_angle_r	knee_angle_r_beta	ankle_angle_r	subtalar_angle_r	mtp_angle_r	hip_flexion_l	hip_adduction_l	hip_rotation_l	knee_angle_l	knee_angle_l_beta	ankle_angle_l	subtalar_angle_l	mtp_angle_l	L5_S1_Flex_Ext	L5_S1_Lat_Bending	L5_S1_axial_rotation	L4_L5_Flex_Ext	L4_L5_Lat_Bending	L4_L5_axial_rotation	L3_L4_Flex_Ext	L3_L4_Lat_Bending	L3_L4_axial_rotation	L2_L3_Flex_Ext	L2_L3_Lat_Bending	L2_L3_axial_rotation	L1_L2_Flex_Ext	L1_L2_Lat_Bending	L1_L2_axial_rotation	L1_T12_Flex_Ext	L1_T12_Lat_Bending	L1_T12_axial_rotation	Abs_r3	Abs_r2	Abs_r1	Abs_t1	Abs_t2	neck_flexion	neck_bending	neck_rotation	arm_flex_r	arm_add_r	arm_rot_r	elbow_flex_r	pro_sup_r	wrist_flex_r	wrist_dev_r	arm_flex_l	arm_add_l	arm_rot_l	elbow_flex_l	pro_sup_l	wrist_flex_l	wrist_dev_l
      7.50000000	    -41.44770098	     -7.89047692	     -1.62737207	     -0.18498951	      1.09189419	     -0.01639964	    111.88822938	     -7.13011479	     -7.09151613	    112.19993915	      1.95825836	     15.00218184	      0.26947355	      0.00000000	     83.28033496	     -5.50442403	     12.02457324	     49.49570819	      0.86386307	      5.15737692	     -9.00914207	      0.00000000	     -0.08456657	      0.91174250	      0.24995478	     -0.15704857	      1.21261752	      0.26557695	     -0.13893441	      2.21681071	      0.26557695	     -0.09665113	      2.21681071	      0.21871043	     -0.07852851	      1.85922530	      0.20308825	     -0.04832134	      1.41228913	      0.18746608	     -0.60405053	     10.31381348	      1.39017347	      0.00000000	      0.00000000	     -0.00000000	      0.00000000	      0.00000000	     62.87466440	     -8.34502542	     26.35678051	     34.54891221	     26.34170525	      0.00000000	      5.00000014	     63.41576234	     -2.92793675	     17.62985757	     28.72686944	     40.25399971	      0.00000000	      5.00000014
      7.50800000	    -41.49294552	     -8.08122629	     -1.79356953	     -0.18511085	      1.09250452	     -0.01625227	    112.80525704	     -7.19271428	     -7.30295497	    112.13616693	      1.95714532	     15.55913761	      0.52054631	      0.00000000	     82.44977774	     -5.89694705	     11.95112181	     48.99625802	      0.85514602	      5.13848743	     -8.81137874	      0.00000000	     -0.08742733	      0.94352133	      0.28840396	     -0.16236129	      1.25488337	      0.30642921	     -0.14363435	      2.29407775	      0.30642921	     -0.09992069	      2.29407775	      0.25235346	     -0.08118502	      1.92402869	      0.23432822	     -0.04995597	      1.46151454	      0.21630297	     -0.62448465	     10.67330196	      1.60401629	      0.00000000	      0.00000000	     -0.00000000	      0.00000000	      0.00000000	     63.00330336	     -8.36424040	     26.42875412	     34.42774282	     26.36751462	      0.00000000	      5.00000014	     63.29023481	     -2.88360663	     17.50205931	     28.85469885	     40.22154405	      0.00000000	      5.00000014
      7.51700000	    -41.50470246	     -8.18706480	     -1.79556868	     -0.18523074	      1.09284327	     -0.01630102	    113.71914263	     -7.38030549	     -7.38176474	    112.03158535	      1.95532003	     15.80462296	      0.55699130	      0.00000000	     81.84124906	     -6.05147180	     11.90257980	     49.04860584	      0.85605967	      5.10803765	     -8.77611899	      0.00000000	     -0.08932974	      0.96264707	      0.29712221	     -0.16589426	      1.28032060	      0.31569235	     -0.14675983	      2.34058009	      0.31569235	     -0.10209496	      2.34058009	      0.25998194	     -0.08295160	      1.96302990	      0.24141180	     -0.05104301	      1.49114031	      0.22284166	     -0.63807340	     10.88965618	      1.65250461	      0.00000000	      0.00000000	     -0.00000000	      0.00000000	      0.00000000	     63.06184523	     -8.36673634	     26.43097947	     34.40437842	     26.36590349	      0.00000000	      5.00000014	     63.23044708	     -2.86115539	     17.48056020	     28.85955750	     40.21460483	      0.00000000	      5.00000014
      7.52500000	    -41.59563168	     -8.53563033	     -2.05123615	     -0.18546303	      1.09346736	     -0.01611485	    114.32868092	     -7.39451172	     -7.66314829	    111.56443535	      1.94716673	     17.42639460	      2.38807379	      0.00000000	     81.35190519	     -6.69484334	     11.62456776	     49.06105664	      0.85627697	      5.94910810	     -7.73507709	      0.00000000	     -0.08770619	      1.01489191	      0.34480270	     -0.16287917	      1.34980624	      0.36635287	     -0.14409251	      2.46760820	      0.36635287	     -0.10023941	      2.46760820	      0.30170236	     -0.08144397	      2.06956759	      0.28015219	     -0.05011532	      1.57206757	      0.25860203	     -0.62647658	     11.48066029	      1.91768918	      0.00000000	      0.00000000	     -0.00000000	      0.00000000	      0.00000000	     63.29699137	     -8.38609339	     26.80132502	     34.10197709	     26.36475856	      0.00000000	      5.00000014	     63.00051139	     -2.67112322	     16.42033141	     29.14615027	     39.93129559	      0.00000000	      5.00000014
